<?xml version="1.0" encoding="utf-8"?>
<!-- Generator: Adobe Illustrator 16.0.0, SVG Export Plug-In . SVG Version: 6.00 Build 0)  -->
<!DOCTYPE svg PUBLIC "-//W3C//DTD SVG 1.1//EN" "http://www.w3.org/Graphics/SVG/1.1/DTD/svg11.dtd">
<svg version="1.1" id="Lindsay_Roberts_Logo" xmlns="http://www.w3.org/2000/svg" xmlns:xlink="http://www.w3.org/1999/xlink"
	 x="0px" y="0px" width="234.948px" height="214.912px" viewBox="0 0 234.948 214.912" enable-background="new 0 0 234.948 214.912"
	 xml:space="preserve">
<line fill="none" x1="-472.174" y1="107.172" x2="-454.959" y2="107.456"/>
<g>
	<path fill="#FFFFFF" d="M167.097,134.167c36.842-6.447,55.57-35.308,55.57-65.702c0-34.078-23.334-68.464-70-68.464H18.341
		L44.16,31.316h108.508c26.097,0,38.991,18.728,38.991,37.148c0,18.729-12.895,37.456-38.991,37.456H116.44v14.736l78.289,94.255
		h40.219L167.097,134.167z"/>
	<polygon fill="#FFFFFF" points="31.043,61.317 0,23.665 0,31.316 0.034,31.316 0.034,214.912 132.052,214.912 132.052,183.903 
		31.043,183.903 	"/>
</g>
</svg>
